HIERARCHY
ROOT Hips
{
    OFFSET 0.0 0.0 0.0
    CHANNELS 6 Xposition Yposition Zposition Zrotation Xrotation Yrotation
    JOINT RightUpLeg
    {
        OFFSET -0.1 0.0 0.0
        CHANNELS 3 Zrotation Xrotation Yrotation
        JOINT RightLeg
        {
            OFFSET 0.0 -0.45 0.0
            CHANNELS 1 Xrotation
            JOINT RightFoot
            {
                OFFSET 0.0 -0.45 0.0
                CHANNELS 0
                End Site
                {
                    OFFSET 0.0 -0.1 0.1
                }
            }
        }
    }
    JOINT LeftUpLeg
    {
        OFFSET 0.1 0.0 0.0
        CHANNELS 3 Zrotation Xrotation Yrotation
        JOINT LeftLeg
        {
            OFFSET 0.0 -0.45 0.0
            CHANNELS 1 Xrotation
            JOINT LeftFoot
            {
                OFFSET 0.0 -0.45 0.0
                CHANNELS 0
                End Site
                {
                    OFFSET 0.0 -0.1 0.1
                }
            }
        }
    }
    JOINT Spine
    {
        OFFSET 0.0 0.2 0.0
        CHANNELS 3 Zrotation Xrotation Yrotation
        End Site
        {
            OFFSET 0.0 0.5 0.0
        }
    }
}
MOTION
Frames: 67
Frame Time: 0.016667
-0.0049 140.1423 -0.4114 0.0000 0.0000 0.0000 -2.6146 -0.2053 13.1597 26.7117 -1.5011 -0.3106 16.4021 28.8807 -3.2402 0.0031 1.0738
0.0481 139.4871 -1.3872 0.0000 0.0000 0.0000 -7.3168 -1.5227 11.3421 10.2926 -3.4286 -1.4447 16.6440 7.4320 -8.7737 -0.7281 1.0265
0.0548 137.4588 -1.7915 0.0000 0.0000 0.0000 -10.2065 -3.6415 5.5600 0.4722 -3.9613 -0.6150 14.2550 -9.8302 -9.5578 -0.0493 -0.0399
0.1323 134.3594 -1.5205 0.0000 0.0000 0.0000 -11.9375 -5.1863 -4.0156 -3.0446 -3.5157 1.8303 10.3236 -19.0768 -6.0867 1.2918 -0.9532
0.4206 130.2396 -0.7007 0.0000 0.0000 0.0000 -12.4941 -4.5252 -15.7572 -1.1962 -2.9067 3.5946 5.1129 -21.9852 -1.1655 1.5283 -2.4699
0.7669 125.2615 0.0446 0.0000 0.0000 0.0000 -11.8004 -4.3828 -23.8107 -0.3548 -2.3826 2.5544 0.4269 -22.0067 3.1498 0.5017 -2.4697
0.7214 121.3256 0.5343 0.0000 0.0000 0.0000 -9.7006 -3.9973 -28.8906 -1.0981 -1.7702 0.4644 -2.2271 -22.5855 5.6219 -0.3365 -2.1741
0.1397 120.5195 0.7492 0.0000 0.0000 0.0000 -6.9158 -3.7566 -29.9097 -1.3987 -1.9141 -0.8490 -2.4404 -26.6315 5.2271 -0.1936 -1.5434
-0.6080 120.1085 0.8300 0.0000 0.0000 0.0000 -5.0695 -3.6442 -28.9406 -0.8652 -3.6342 -3.6180 -3.6049 -33.4037 4.7316 -0.5434 0.5041
-1.3550 119.5987 0.7458 0.0000 0.0000 0.0000 -4.0547 -3.1868 -28.3923 -0.7775 -4.9335 -6.1276 -6.9865 -43.1070 3.9398 -0.8396 0.8376
-2.1925 119.2497 0.6295 0.0000 0.0000 0.0000 -3.1608 -2.5569 -29.7447 -1.8191 -4.5628 -7.9964 -12.3946 -51.0185 3.2500 -1.9302 0.4112
-3.0647 118.9340 0.8167 0.0000 0.0000 0.0000 -2.5722 -1.1749 -34.9597 -6.1931 -3.7527 -10.0698 -19.7114 -55.9685 2.8073 -4.0045 -0.3064
-3.8027 118.1912 1.0975 0.0000 0.0000 0.0000 -2.7900 -0.7611 -42.0277 -15.7215 -1.7720 -11.3910 -24.0405 -58.8711 2.4205 -5.0819 -0.8506
-4.3612 117.6754 1.4027 0.0000 0.0000 0.0000 -3.9016 -2.0924 -46.7965 -23.5405 0.6474 -11.0805 -24.9925 -60.0013 2.5371 -4.7963 -1.0034
-4.8011 117.3613 1.6801 0.0000 0.0000 0.0000 -5.8067 -5.2711 -46.8680 -24.7619 2.9810 -9.1822 -22.9356 -60.0204 2.4777 -3.2861 -0.8305
-5.1144 117.1059 2.1495 0.0000 0.0000 0.0000 -7.5414 -8.1532 -43.9172 -20.8594 5.6669 -6.8476 -19.3084 -59.2914 1.9441 -1.7923 -0.8627
-5.2775 116.8652 2.9504 0.0000 0.0000 0.0000 -8.3093 -9.0661 -40.6065 -16.2154 7.6914 -5.0384 -14.8854 -58.0715 1.1832 -1.1979 -0.9548
-5.2302 116.6120 4.2017 0.0000 0.0000 0.0000 -8.1966 -8.1000 -38.3721 -11.7559 8.6258 -3.5033 -10.2980 -56.3138 0.5107 -1.3327 -1.1301
-4.9880 116.3423 5.9717 0.0000 0.0000 0.0000 -7.4768 -5.6935 -37.4132 -7.9297 8.2882 -2.3257 -5.8177 -53.8132 0.1542 -1.6216 -1.3567
-4.5782 116.0863 8.2542 0.0000 0.0000 0.0000 -6.2749 -2.6214 -37.5413 -5.5598 6.9699 -1.6011 -0.9265 -49.6843 0.7827 -1.6428 -1.2700
-3.9035 115.8870 11.0988 0.0000 0.0000 0.0000 -5.0169 -0.8940 -37.4511 -3.2385 4.5721 -2.0492 2.4833 -45.0568 3.3506 -1.9622 0.4868
-3.4129 115.8810 13.6137 0.0000 0.0000 0.0000 -5.0745 -1.8918 -35.7017 -0.0674 0.7436 -1.7936 1.5945 -47.7300 3.7669 -1.6518 1.1731
-3.3372 115.5091 15.2499 0.0000 0.0000 0.0000 -4.9537 -3.7595 -33.4062 0.6149 -1.6240 -1.0981 -2.4737 -60.5200 1.4492 -0.3253 0.6332
-3.6415 114.9380 16.3835 0.0000 0.0000 0.0000 -4.4323 -5.4412 -31.7981 -0.3702 -1.4088 -1.5000 -8.5321 -71.7235 -0.6715 0.2457 0.5505
-4.1282 114.5290 17.9045 0.0000 0.0000 0.0000 -3.3599 -5.1224 -35.9571 -3.7768 1.4624 -4.3051 -18.2005 -70.9363 -1.2129 -1.0584 -0.1396
-4.6569 114.2166 19.7768 0.0000 0.0000 0.0000 -3.3323 -4.6859 -42.8314 -11.3380 4.3770 -7.7528 -25.8426 -67.4898 -0.6907 -2.9932 -0.7954
-5.1026 114.2900 21.2925 0.0000 0.0000 0.0000 -5.0773 -6.0514 -44.5688 -16.0607 6.1429 -7.8979 -25.6427 -68.9262 0.1886 -2.4687 -0.4456
-5.2876 114.4104 22.8243 0.0000 0.0000 0.0000 -6.9230 -7.3237 -43.2050 -15.2762 7.8734 -6.4360 -21.8893 -68.2206 0.6115 -1.3573 -0.3872
-5.2143 114.4572 24.5796 0.0000 0.0000 0.0000 -7.8954 -7.2548 -40.0872 -10.8404 8.9997 -4.6527 -16.5077 -66.3348 0.5912 -0.7207 -0.4222
-4.8766 114.3109 26.7715 0.0000 0.0000 0.0000 -8.0184 -5.6252 -38.0029 -6.7718 9.0312 -3.0257 -10.9445 -63.8064 0.2043 -0.5659 -0.5796
-4.3336 114.0193 29.4147 0.0000 0.0000 0.0000 -7.6894 -3.3367 -37.4133 -4.3700 8.0573 -1.6095 -5.5662 -60.4264 0.0568 -0.1803 -0.7640
-3.5687 113.7027 32.4590 0.0000 0.0000 0.0000 -6.7514 -1.0495 -38.0740 -4.0596 6.7268 -0.8293 -0.2282 -55.8682 1.1440 -0.1092 -0.5087
-2.6633 113.6207 35.8191 0.0000 0.0000 0.0000 -5.8365 -0.4910 -38.4867 -3.3657 4.4506 -1.6784 2.4296 -52.1683 3.5630 -1.0426 0.9700
-2.2424 113.7598 38.6064 0.0000 0.0000 0.0000 -5.2229 -1.3055 -37.2461 0.1751 1.0271 -1.8317 -0.9452 -57.5295 3.6768 -0.8451 0.8533
-2.4312 113.4623 40.3283 0.0000 0.0000 0.0000 -5.1820 -2.9449 -35.3864 0.5789 -0.8509 -2.0111 -6.9597 -71.1990 1.5214 0.1646 0.5251
-2.9152 112.9454 41.8935 0.0000 0.0000 0.0000 -5.0005 -3.9081 -36.3950 -1.3273 0.4174 -3.0471 -15.3911 -78.5153 -0.0458 0.0386 -0.0881
-3.5316 112.2656 44.0886 0.0000 0.0000 0.0000 -4.7324 -3.9902 -43.3593 -6.6860 4.2805 -7.1227 -26.6825 -72.7893 -0.5202 -1.7831 -0.6594
-3.9519 112.0716 45.7311 0.0000 0.0000 0.0000 -5.9864 -5.0919 -46.3997 -11.3839 6.6177 -7.9601 -28.7784 -73.1276 0.5496 -2.1455 -0.2947
-4.0175 112.1772 47.1047 0.0000 0.0000 0.0000 -6.9878 -6.3270 -45.1098 -11.0780 8.0491 -6.0638 -25.1674 -73.5049 1.2040 -1.0428 -0.1783
-3.8428 112.1088 48.7696 0.0000 0.0000 0.0000 -7.4110 -6.4955 -42.6748 -7.3795 8.8495 -4.0463 -19.6345 -71.7635 1.5115 -0.5281 -0.2327
-3.4398 111.7916 50.9004 0.0000 0.0000 0.0000 -7.4746 -5.2296 -41.3875 -4.2852 8.4478 -2.1336 -14.3429 -69.6627 1.1758 -0.3016 -0.5927
-2.8705 111.4151 53.3977 0.0000 0.0000 0.0000 -7.1844 -3.8614 -41.0737 -3.2144 7.4584 -0.4727 -9.4228 -67.2869 0.8548 0.1784 -0.8918
-2.1887 111.2061 56.2120 0.0000 0.0000 0.0000 -6.3389 -2.5782 -41.8066 -4.3726 6.6168 0.3966 -4.5618 -63.5828 1.6947 -0.0351 -0.8908
-1.4059 111.5164 59.3512 0.0000 0.0000 0.0000 -5.1742 -1.9767 -42.8291 -4.1454 4.8778 -0.4617 -2.3456 -59.3955 4.1145 -1.4940 0.3201
-0.9752 111.7540 62.0599 0.0000 0.0000 0.0000 -4.5105 -2.8779 -41.7170 -0.0433 1.4264 -0.6050 -5.2382 -63.3477 4.2969 -1.2715 0.3146
-1.2185 111.5473 63.6337 0.0000 0.0000 0.0000 -4.4220 -4.7922 -40.0149 0.2141 -0.3702 -0.7031 -10.7896 -76.0250 1.7162 -0.2977 0.0127
-1.8296 111.2233 65.0057 0.0000 0.0000 0.0000 -4.1738 -6.4601 -40.6563 -1.4264 1.0694 -2.0957 -19.2001 -81.4626 0.0772 -0.1490 -0.5265
-2.4853 110.6599 66.9225 0.0000 0.0000 0.0000 -4.2416 -7.7908 -45.6321 -5.0431 5.0220 -5.7069 -28.7822 -75.7317 -0.1375 -1.1128 -0.8096
-2.7535 110.7196 68.2482 0.0000 0.0000 0.0000 -5.3049 -9.1796 -46.5293 -8.0159 7.7051 -5.5362 -28.1030 -75.8701 0.8338 -1.1918 -0.4168
-2.6316 110.9562 69.5047 0.0000 0.0000 0.0000 -5.7244 -9.4291 -44.3659 -6.8221 8.9453 -3.5301 -22.7591 -74.9291 1.4289 -0.6697 -0.3991
-2.2658 110.9876 71.2119 0.0000 0.0000 0.0000 -5.9367 -8.6515 -41.9776 -4.0450 8.5911 -1.8386 -17.0184 -72.9538 1.4024 -0.4346 -0.3774
-1.7063 110.8031 73.4572 0.0000 0.0000 0.0000 -5.9978 -7.1725 -41.1522 -2.9349 7.5529 -0.4692 -11.8547 -70.5082 1.0027 -0.1299 -0.5521
-1.0120 110.6362 76.1010 0.0000 0.0000 0.0000 -5.6693 -5.6563 -41.4475 -3.7559 6.6248 0.5584 -6.8731 -67.0907 1.2963 0.0101 -0.7173
-0.2633 110.9909 79.0998 0.0000 0.0000 0.0000 -4.4923 -4.2365 -42.4817 -4.7329 6.0593 0.4227 -3.0359 -62.1600 3.2864 -1.4524 -0.2306
0.3823 111.5193 81.9993 0.0000 0.0000 0.0000 -3.9416 -4.5569 -41.5755 -0.5710 3.0220 0.1174 -4.5049 -62.1161 4.6026 -1.8282 0.3628
0.4076 111.5773 83.7904 0.0000 0.0000 0.0000 -3.9488 -6.0437 -39.5728 0.6658 0.7049 0.2665 -9.4530 -72.8620 2.5739 -0.8581 0.1294
0.0299 111.3739 85.0264 0.0000 0.0000 0.0000 -3.9932 -7.5565 -38.7156 -0.6828 1.1097 -0.5466 -16.3196 -80.6889 0.5302 -0.3927 -0.0102
-0.4248 110.9859 86.8759 0.0000 0.0000 0.0000 -3.8489 -8.1165 -43.2040 -3.8473 4.5210 -3.6704 -25.7839 -75.7396 -0.0310 -0.9839 -0.5551
-0.6621 110.9560 88.4616 0.0000 0.0000 0.0000 -5.1138 -9.3975 -45.2016 -7.9432 7.5461 -4.2120 -26.4308 -75.0516 0.5368 -1.0992 -0.3436
-0.5778 111.1876 89.9808 0.0000 0.0000 0.0000 -6.1089 -9.5431 -44.0033 -8.2552 9.2836 -2.7606 -21.9178 -74.3186 0.9533 -0.5810 -0.3106
-0.2673 111.3186 91.9014 0.0000 0.0000 0.0000 -6.6284 -8.2798 -41.7966 -5.4690 9.3247 -1.3354 -16.2117 -72.1802 0.9846 -0.3365 -0.3805
0.2209 111.2684 94.3643 0.0000 0.0000 0.0000 -6.8576 -6.0104 -40.5789 -3.5036 8.3299 -0.3072 -10.6659 -69.2539 0.6330 -0.1548 -0.5227
0.8769 111.1031 97.3327 0.0000 0.0000 0.0000 -6.6310 -3.4618 -40.7216 -3.4638 7.0847 0.3338 -5.1249 -65.2247 0.8458 0.0327 -0.5156
1.7211 110.9226 100.8133 0.0000 0.0000 0.0000 -5.8228 -1.3845 -42.3414 -5.2915 6.0737 -0.1963 0.2222 -59.3176 2.7372 -1.0425 0.3305
2.7114 110.9275 104.4132 0.0000 0.0000 0.0000 -5.9845 -1.8420 -42.9884 -3.5497 2.9871 -0.4827 1.5885 -56.2051 4.9545 -1.5015 1.7400
3.2321 110.7287 107.1632 0.0000 0.0000 0.0000 -5.7095 -3.3866 -42.0468 0.0949 -0.2043 0.9405 -2.4051 -64.4039 4.4548 -0.2707 0.9245
3.1199 110.2068 108.7849 0.0000 0.0000 0.0000 -5.2249 -5.3780 -40.9328 -0.2690 -0.7904 0.9477 -8.9442 -79.1823 2.0181 0.5864 0.2272
